<svg xmlns="http://www.w3.org/2000/svg" viewBox="0 0 644 1080"><defs><style>.cls-1{isolation:isolate;}.cls-2{fill:#78b57f;}.cls-12,.cls-15,.cls-2,.cls-4,.cls-5,.cls-6,.cls-7{stroke:#1a1a1a;}.cls-19,.cls-2,.cls-22,.cls-23,.cls-24,.cls-4,.cls-5,.cls-7{stroke-miterlimit:10;}.cls-12,.cls-15,.cls-2,.cls-4,.cls-5{stroke-width:4px;}.cls-18,.cls-3{fill:#5b875e;}.cls-19,.cls-22,.cls-23,.cls-24,.cls-4,.cls-5{fill:none;}.cls-12,.cls-15,.cls-19,.cls-23,.cls-24,.cls-5{stroke-linecap:round;}.cls-6{fill:#f17881;stroke-linejoin:round;stroke-width:2px;}.cls-7{fill:#f1787f;}.cls-8{fill:#776457;}.cls-9{fill:#1a1a1a;}.cls-10{fill:#a58c78;}.cls-11{fill:#c6bdb3;}.cls-12,.cls-14{fill:#00a99d;}.cls-12,.cls-15{stroke-linejoin:bevel;}.cls-13,.cls-15{fill:#29abe2;}.cls-16{opacity:0.41;mix-blend-mode:soft-light;}.cls-17{fill:#fff;}.cls-18{opacity:0.84;}.cls-19,.cls-22,.cls-23,.cls-24{stroke:#252c3a;}.cls-20{fill:#414c5e;}.cls-21{fill:#fada9c;}.cls-22,.cls-23{stroke-width:0.5px;}.cls-24{stroke-width:0.25px;}</style></defs><title>Bgu</title><g class="cls-1"><g id="กระถาง"><path class="cls-2" d="M448.29,576.45c14,10.69,34.54,7.35,45.82-7.45s9.06-35.47-5-46.16Z"/><path class="cls-3" d="M491.16,526.05c8.77,6.68,7.33,23.31-3.21,37.14s-26.19,19.62-35,12.94"/><path class="cls-2" d="M447.23,575.64c-14-10.68-16.24-31.35-5-46.15s31.8-18.14,45.82-7.45Z"/><ellipse class="cls-2" cx="468.64" cy="549.03" rx="33.26" ry="19.95" transform="translate(-252.1 588.93) rotate(-52.69)"/><ellipse class="cls-4" cx="468.64" cy="549.03" rx="33.26" ry="19.95" transform="translate(-252.1 588.93) rotate(-52.69)"/><line class="cls-5" x1="470.61" y1="515.95" x2="470.61" y2="505.94"/><line class="cls-5" x1="449.15" y1="521.68" x2="443.42" y2="514.52"/><line class="cls-5" x1="493.76" y1="570.09" x2="498.74" y2="572.96"/><path class="cls-3" d="M437.17,542l-6.63,26.9,25.76,15.74,17.21-3c.86-8.53-2.05-18.18-8.73-26.21C457.2,546.3,446.68,541.59,437.17,542Z"/><ellipse class="cls-4" cx="468.64" cy="549.03" rx="33.26" ry="19.95" transform="translate(-252.1 588.93) rotate(-52.69)"/><path class="cls-4" d="M447.23,575.64c-14-10.68-16.24-31.35-5-46.15s31.8-18.14,45.82-7.45Z"/><path class="cls-4" d="M448.29,576.45c14,10.69,34.54,7.35,45.82-7.45s9.06-35.47-5-46.16Z"/><line class="cls-5" x1="503.27" y1="542.64" x2="507.71" y2="542.67"/><path class="cls-6" d="M418.31,520.55l.05-.27c-3.52-.75-7.28,3.9-8.4,10.39s.78,12.23,4.24,13.07l-.19,1.15c2.43.47,5.29-4.62,6.4-11.37C421.47,527.05,420.53,521.43,418.31,520.55Z"/><path class="cls-6" d="M409.78,542.56c4.84,4.66,13.44,3.58,19.2-2.41s6.52-14.63,1.68-19.29Z"/><ellipse class="cls-6" cx="404.74" cy="530.71" rx="7.18" ry="12.33" transform="translate(-50.12 42.27) rotate(-5.63)"/><path class="cls-2" d="M408.87,667.67c33.29,0,60.28-28.49,60.28-63.63s-27-63.62-60.28-63.62Z"/><path class="cls-3" d="M415.57,542.93c20.81,0,37.67,26.61,37.67,59.44s-16.86,59.44-37.67,59.44"/><path class="cls-2" d="M406.36,667.67c-33.29,0-60.27-28.49-60.27-63.63s27-63.62,60.27-63.62Z"/><ellipse class="cls-2" cx="408.04" cy="603.21" rx="37.67" ry="62.79"/><ellipse class="cls-3" cx="373.39" cy="606.59" rx="75.37" ry="52.58" transform="translate(-298.58 842.86) rotate(-77.76)"/><line class="cls-5" x1="452.01" y1="556.03" x2="459.16" y2="550.3"/><line class="cls-5" x1="376.22" y1="567.21" x2="368.69" y2="563.02"/><line class="cls-5" x1="446.54" y1="595.67" x2="453.24" y2="594.84"/><line class="cls-5" x1="469.86" y1="606.08" x2="480.63" y2="604.69"/><ellipse class="cls-4" cx="408.04" cy="603.21" rx="37.67" ry="62.79"/><path class="cls-7" d="M190.56,403.31s-6.08,19.58,10.75,18.17v0h0c9.39-14-10.76-18.16-10.76-18.16"/><path class="cls-7" d="M200.29,432.53s31.38-26-2.29-35.74a0,0,0,0,0,0,0s0,0,0,0Z"/><path class="cls-7" d="M169.53,432.09s12.42,16.32,21,1.8h0v0h0c-5.93-15.76-21-1.78-21-1.78"/><path class="cls-7" d="M201.74,434.41s-19,36-35.45,5.07h0s0-.05,0-.05Z"/><path class="cls-7" d="M179.09,415.54s2.66,28.77,23.8,17.87l0,0v0h0c4.67-23.25-23.82-17.86-23.82-17.86"/><path class="cls-2" d="M251.44,530.27c33.28,0,60.27-28.49,60.27-63.63S284.72,403,251.44,403Z"/><path class="cls-2" d="M248.92,530.27c-33.28,0-60.27-28.49-60.27-63.63s27-63.62,60.27-63.62Z"/><ellipse class="cls-2" cx="250.6" cy="465.81" rx="37.67" ry="62.79"/><line class="cls-5" x1="294.57" y1="418.63" x2="301.73" y2="412.9"/><line class="cls-5" x1="210.2" y1="515.68" x2="202.97" y2="521.68"/><line class="cls-5" x1="188.73" y1="475.61" x2="178.64" y2="475.88"/><line class="cls-5" x1="289.11" y1="458.27" x2="295.8" y2="457.44"/><line class="cls-5" x1="312.42" y1="468.68" x2="323.2" y2="467.29"/><path class="cls-3" d="M299.58,425.62,288.85,400l-40.08-5.72-13.36,10c1.18,15.59,8.84,28.7,21.51,33.88C270.92,443.91,287.32,438.42,299.58,425.62Z"/><path class="cls-3" d="M264.21,477.76c-22.53,8.74-40,24.11-50,41.84l24.5,22.12,70.13-20,4.3-35.78-3-3.94,1.17-10.79A101.31,101.31,0,0,0,264.21,477.76Z"/><path class="cls-4" d="M248.92,530.27c-33.28,0-60.27-28.49-60.27-63.63s27-63.62,60.27-63.62Z"/><ellipse class="cls-4" cx="250.6" cy="465.81" rx="37.67" ry="62.79"/><path class="cls-4" d="M251.44,530.27c33.28,0,60.27-28.49,60.27-63.63S284.72,403,251.44,403Z"/><path class="cls-2" d="M270.31,328.11c9.95-14.45,5.65-34.67-9.6-45.17s-35.68-7.3-45.62,7.14Z"/><path class="cls-2" d="M269.56,329.2c-9.95,14.45-30.37,17.65-45.62,7.15s-19.55-30.73-9.6-45.18Z"/><ellipse class="cls-2" cx="242.09" cy="309.21" rx="19.85" ry="33.08" transform="translate(-149.88 333.24) rotate(-55.45)"/><line class="cls-5" x1="234.75" y1="276.03" x2="233.03" y2="269.78"/><line class="cls-5" x1="251.66" y1="341.65" x2="252.1" y2="346.58"/><line class="cls-5" x1="209.25" y1="318.95" x2="201.54" y2="319.87"/><ellipse class="cls-3" cx="263.08" cy="319.16" rx="30.8" ry="11.45" transform="translate(-144.86 387.42) rotate(-60)"/><line class="cls-5" x1="250.32" y1="290.25" x2="251.96" y2="287.09"/><line class="cls-5" x1="212.93" y1="291.44" x2="207.26" y2="288.39"/><path class="cls-4" d="M269.56,329.2c-9.95,14.45-30.37,17.65-45.62,7.15s-19.55-30.73-9.6-45.18Z"/><path class="cls-4" d="M270.31,328.11c9.95-14.45,5.65-34.67-9.6-45.17s-35.68-7.3-45.62,7.14Z"/><ellipse class="cls-4" cx="242.09" cy="309.21" rx="19.85" ry="33.08" transform="translate(-149.88 333.24) rotate(-55.45)"/><path class="cls-7" d="M353,281.18s-16.79-11.77-20.59,4.68h0v0h0c10.44,13.21,20.59-4.7,20.59-4.7"/><path class="cls-7" d="M322.16,281.52s15.14,37.81,34.73,8.73h0a.08.08,0,0,0,0-.05Z"/><path class="cls-7" d="M332,252.36s-19.33,6.84-8.14,19.48v0h0c16.82-.84,8.12-19.49,8.12-19.49"/><path class="cls-7" d="M319.93,282.32s-28.51-29.09,6-35.3h0l0,0Z"/><path class="cls-7" d="M344.82,266.52s-28.21-6.25-24.29,17.2l0,0h0v0h0c20.71,11.55,24.28-17.23,24.28-17.23"/><path class="cls-2" d="M260.29,428.07c21.36,6.84,51.62-22,67.59-64.51s11.61-82.45-9.74-89.29Z"/><path class="cls-3" d="M321.29,278.68c13.35,4.28,12.07,39.91-2.85,79.59s-37.84,68.37-51.19,64.1"/><path class="cls-2" d="M258.68,427.56c-21.35-6.85-25.72-46.82-9.74-89.29s46.23-71.36,67.58-64.52Z"/><ellipse class="cls-2" cx="289.06" cy="349.99" rx="81.09" ry="25.34" transform="translate(-141.06 495.04) rotate(-69.08)"/><line class="cls-5" x1="263.08" y1="324.17" x2="269.72" y2="329.96"/><line class="cls-5" x1="227.3" y1="381.42" x2="239.67" y2="381.49"/><line class="cls-5" x1="284.04" y1="281.06" x2="282.7" y2="269.59"/><line class="cls-5" x1="317.19" y1="348.79" x2="321.86" y2="349.16"/><line class="cls-5" x1="306.57" y1="381.42" x2="310.71" y2="384.65"/><path class="cls-3" d="M321.76,483c35.58,0,64.41,45.49,64.41,101.61s-28.83,101.62-64.41,101.62"/><path class="cls-3" d="M310.31,481.6c4.75,0,8.59,41.66,8.59,93s-3.84,93-8.59,93"/><line class="cls-5" x1="333.21" y1="484.47" x2="336.08" y2="468.72"/><line class="cls-5" x1="363.27" y1="528.84" x2="374.72" y2="520.25"/><line class="cls-5" x1="254.5" y1="524.54" x2="241.61" y2="517.39"/><line class="cls-5" x1="374.72" y1="573.2" x2="386.17" y2="571.77"/><line class="cls-5" x1="370.55" y1="618.04" x2="383.31" y2="620.44"/><path class="cls-2" d="M310.31,696.29c56.92,0,103.05-48.7,103.05-108.77s-46.13-108.78-103-108.78Z"/><path class="cls-2" d="M306,696.29c-56.91,0-103-48.7-103-108.77s46.14-108.78,103-108.78Z"/><path class="cls-2" d="M308.88,693.43c35.57,0,64.41-48.06,64.41-107.34s-28.84-107.35-64.41-107.35Z"/><path class="cls-2" d="M308.88,693.43c-35.57,0-64.4-48.06-64.4-107.34s28.83-107.35,64.4-107.35Z"/><path class="cls-3" d="M210.59,550.31c13.77,3.43,30.25,16.8,42.83,36.29,18.31,28.34,15.52,57.43,1.08,66.75L205.32,569.5"/><path class="cls-4" d="M308.88,693.43c-35.57,0-64.4-48.06-64.4-107.34s28.83-107.35,64.4-107.35Z"/><path class="cls-4" d="M306,696.29c-56.91,0-103-48.7-103-108.77s46.14-108.78,103-108.78Z"/><path class="cls-4" d="M308.88,693.43c35.57,0,64.41-48.06,64.41-107.34s-28.84-107.35-64.41-107.35Z"/><path class="cls-2" d="M240.42,668.6c23.11-14.93,26-51.62,6.37-82s-54.21-42.84-77.32-27.91Z"/><path class="cls-3" d="M175.52,557.89c14.44-9.33,41,6.09,59.29,34.43s21.44,58.89,7,68.21"/><path class="cls-2" d="M238.68,669.72c-23.11,14.93-57.73,2.43-77.32-27.91s-16.75-67,6.36-82Z"/><ellipse class="cls-2" cx="203.9" cy="613.31" rx="31.13" ry="64.53" transform="translate(-300.12 208.72) rotate(-32.85)"/><line class="cls-5" x1="167.75" y1="558.48" x2="160.03" y2="548.87"/><line class="cls-5" x1="207.31" y1="570.14" x2="209.16" y2="562.8"/><line class="cls-5" x1="146.3" y1="589.7" x2="136.29" y2="586.18"/><line class="cls-5" x1="226.43" y1="589.54" x2="230.61" y2="585.82"/><line class="cls-5" x1="239.36" y1="613.28" x2="245.32" y2="611.14"/><rect class="cls-8" x="181.36" y="802.77" width="254.34" height="20.33"/><path class="cls-9" d="M433.7,804.77V821.1H183.36V804.77H433.7m4-4H179.36V825.1H437.7V800.77Z"/><path class="cls-10" d="M163.62,801.63a17.35,17.35,0,0,1-17.33-17.33V641H471.48V784.3a17.35,17.35,0,0,1-17.34,17.33Z"/><path class="cls-9" d="M469.48,643V784.3a15.36,15.36,0,0,1-15.34,15.34H163.62a15.35,15.35,0,0,1-15.33-15.34V643H469.48m4-4H144.29V784.3a19.34,19.34,0,0,0,19.33,19.34H454.14a19.34,19.34,0,0,0,19.34-19.34V639Z"/><rect class="cls-11" x="146.29" y="681.12" width="325.19" height="77.58"/><path class="cls-9" d="M469.48,683.12V756.7H148.29V683.12H469.48m4-4H144.29V760.7H473.48V679.12Z"/><rect class="cls-10" x="173.03" y="706.43" width="28.39" height="28.39" transform="translate(-454.72 343.46) rotate(-45)"/><path class="cls-9" d="M188.72,701.88h0m-1.49,1.5,17.24,17.24-17.24,17.25L170,720.62l17.25-17.24m0-4.88a1.89,1.89,0,0,0-1.34.56l-20.23,20.23a1.88,1.88,0,0,0,0,2.67l20.23,20.23a1.9,1.9,0,0,0,2.67,0L208.79,722a1.88,1.88,0,0,0,0-2.67l-20.23-20.23a1.88,1.88,0,0,0-1.33-.56Z"/><path class="cls-12" d="M147.15,700.59l18.13,18.12a2.69,2.69,0,0,1,0,3.82l-18.13,16.7"/><rect class="cls-13" x="213.68" y="706.43" width="28.39" height="28.39" transform="translate(-442.81 372.2) rotate(-45)"/><path class="cls-9" d="M229.37,701.88h0m-1.5,1.5,17.25,17.24-17.25,17.25-17.24-17.25,17.24-17.24m0-4.88a1.88,1.88,0,0,0-1.33.56l-20.23,20.23a1.88,1.88,0,0,0,0,2.67l20.23,20.23a1.9,1.9,0,0,0,2.67,0L249.44,722a1.88,1.88,0,0,0,0-2.67l-20.23-20.23a1.89,1.89,0,0,0-1.34-.56Z"/><rect class="cls-14" x="254.33" y="706.43" width="28.39" height="28.39" transform="translate(-430.91 400.94) rotate(-45)"/><path class="cls-9" d="M270,701.88h0m-1.5,1.5,17.25,17.24-17.25,17.25-17.24-17.25,17.24-17.24m0-4.88a1.88,1.88,0,0,0-1.33.56L247,719.29a1.88,1.88,0,0,0,0,2.67l20.23,20.23a1.87,1.87,0,0,0,1.33.55,1.89,1.89,0,0,0,1.34-.55L290.09,722a1.88,1.88,0,0,0,0-2.67l-20.23-20.23a1.9,1.9,0,0,0-1.34-.56Z"/><rect class="cls-10" x="294.98" y="706.43" width="28.39" height="28.39" transform="translate(-419 429.67) rotate(-45)"/><path class="cls-9" d="M310.66,701.88h0m-1.49,1.5,17.24,17.24-17.24,17.25-17.24-17.25,17.24-17.24m0-4.88a1.86,1.86,0,0,0-1.33.56L287.6,719.29a1.9,1.9,0,0,0,0,2.67l20.24,20.23a1.88,1.88,0,0,0,2.66,0L330.74,722a1.9,1.9,0,0,0,0-2.67L310.5,699.06a1.88,1.88,0,0,0-1.33-.56Z"/><rect class="cls-13" x="335.62" y="706.43" width="28.39" height="28.39" transform="translate(-407.09 458.41) rotate(-45)"/><path class="cls-9" d="M351.31,701.88h0m-1.49,1.5,17.24,17.24-17.24,17.25-17.25-17.25,17.25-17.24m0-4.88a1.89,1.89,0,0,0-1.34.56l-20.23,20.23a1.88,1.88,0,0,0,0,2.67l20.23,20.23a1.9,1.9,0,0,0,2.67,0L371.38,722a1.88,1.88,0,0,0,0-2.67l-20.23-20.23a1.88,1.88,0,0,0-1.33-.56Z"/><rect class="cls-14" x="376.27" y="706.43" width="28.39" height="28.39" transform="translate(-395.19 487.17) rotate(-45)"/><path class="cls-9" d="M392,701.88h0m-1.5,1.5,17.25,17.24-17.25,17.25-17.24-17.25,17.24-17.24m0-4.88a1.88,1.88,0,0,0-1.33.56L368.9,719.29a1.88,1.88,0,0,0,0,2.67l20.23,20.23a1.9,1.9,0,0,0,2.67,0L412,722a1.88,1.88,0,0,0,0-2.67L391.8,699.06a1.89,1.89,0,0,0-1.34-.56Z"/><rect class="cls-10" x="416.92" y="706.43" width="28.39" height="28.39" transform="translate(-383.28 515.89) rotate(-45)"/><path class="cls-9" d="M432.61,701.88h0m-1.5,1.5,17.24,17.24-17.24,17.25-17.24-17.25,17.24-17.24m0-4.88a1.88,1.88,0,0,0-1.33.56l-20.23,20.23a1.88,1.88,0,0,0,0,2.67l20.23,20.23a1.87,1.87,0,0,0,1.33.55,1.89,1.89,0,0,0,1.34-.55L452.68,722a1.9,1.9,0,0,0,0-2.67l-20.23-20.23a1.9,1.9,0,0,0-1.34-.56Z"/><path class="cls-15" d="M470.61,739.23l-17.55-16.7a2.69,2.69,0,0,1,0-3.82L470.61,702"/><g class="cls-16"><rect class="cls-17" x="180.07" y="641.9" width="24.33" height="158.87"/></g><g class="cls-16"><rect class="cls-17" x="217.28" y="641.9" width="7.16" height="158.87"/></g><path class="cls-9" d="M469.48,643V784.3a15.36,15.36,0,0,1-15.34,15.34H163.62a15.35,15.35,0,0,1-15.33-15.34V643H469.48m4-4H144.29V784.3a19.34,19.34,0,0,0,19.33,19.34H454.14a19.34,19.34,0,0,0,19.34-19.34V639Z"/></g><g id="Bug"><ellipse class="cls-18" cx="391" cy="602.5" rx="13.75" ry="25.5" transform="translate(-187.53 176.84) rotate(-20.67)"/><path class="cls-19" d="M386.19,587.11s-1.59-7.94,4.77-10.27"/><path class="cls-19" d="M385.61,587.32s-3.9-7.1-10.26-4.77"/><circle class="cls-20" cx="388.57" cy="595.41" r="8.62"/><path class="cls-19" d="M373.63,593.67s4.3.48,2,5.45,3.11,7.1,7,5.69"/><path class="cls-19" d="M385.9,627.21s3-3.15-2-5.46-2.21-7.43,1.65-8.84"/><path class="cls-19" d="M399.09,584.35s-3,3.15,2,5.46,2.21,7.43-1.65,8.84"/><path class="cls-19" d="M412.37,603.1a13.25,13.25,0,0,1-5.41-1.71c-2.11-1.44-6.33.1-6.33.1"/><path class="cls-19" d="M382.71,608.05a13.26,13.26,0,0,0-3,4.79c-.69,2.47-4.9,4-4.9,4"/><path class="cls-19" d="M411.36,617.89s-4.3-.48-2-5.45-3.11-7.1-7-5.69"/><path class="cls-21" d="M381.77,594h22.17a0,0,0,0,1,0,0v20.09a6.08,6.08,0,0,1-6.08,6.08h-10a6.08,6.08,0,0,1-6.08-6.08V594a0,0,0,0,1,0,0Z" transform="translate(-184.67 171.93) rotate(-20.09)"/><line class="cls-22" x1="377.34" y1="599.29" x2="399.59" y2="591.15"/><line class="cls-23" x1="388.64" y1="595.15" x2="397.4" y2="619.12"/><line class="cls-24" x1="383.9" y1="600.77" x2="382.81" y2="603.11"/><line class="cls-24" x1="386.24" y1="601.85" x2="383.9" y2="600.77"/><line class="cls-24" x1="386.4" y1="607.62" x2="385.32" y2="609.95"/><line class="cls-24" x1="388.74" y1="608.7" x2="386.4" y2="607.62"/><line class="cls-24" x1="388.91" y1="614.46" x2="387.82" y2="616.8"/><line class="cls-24" x1="391.25" y1="615.55" x2="388.91" y2="614.46"/><line class="cls-24" x1="395.88" y1="596.39" x2="394.79" y2="598.72"/><line class="cls-24" x1="398.22" y1="597.47" x2="395.88" y2="596.39"/><line class="cls-24" x1="398.38" y1="603.23" x2="397.3" y2="605.57"/><line class="cls-24" x1="400.72" y1="604.32" x2="398.38" y2="603.23"/><line class="cls-24" x1="400.89" y1="610.08" x2="399.8" y2="612.42"/><line class="cls-24" x1="403.23" y1="611.16" x2="400.89" y2="610.08"/></g></g></svg>